<!DOCTYPE svg PUBLIC "-//W3C//DTD SVG 1.1//EN" "http://www.w3.org/Graphics/SVG/1.1/DTD/svg11.dtd">
<!-- Uploaded to: SVG Repo, www.svgrepo.com, Transformed by: SVG Repo Mixer Tools -->
<svg height="800px" width="800px" version="1.1" id="Capa_1" xmlns="http://www.w3.org/2000/svg" xmlns:xlink="http://www.w3.org/1999/xlink" viewBox="0 0 60.906 60.906" xml:space="preserve" fill="#000000" stroke="#000000" stroke-width="2.558052">
<g id="SVGRepo_bgCarrier" stroke-width="0"/>
<g id="SVGRepo_tracerCarrier" stroke-linecap="round" stroke-linejoin="round"/>
<g id="SVGRepo_iconCarrier"> <g> <path style="fill:#fcfaff00;" d="M19.472,3.504c2.436,0,4.411,1.975,4.411,4.411s-1.975,4.411-4.411,4.411s-4.411-1.975-4.411-4.411 S17.036,3.504,19.472,3.504z M56.215,35.58c0.656,0,1.188,0.532,1.188,1.188s-0.532,1.188-1.188,1.188s-1.188-0.532-1.188-1.188 C55.027,36.112,55.558,35.58,56.215,35.58z M57.525,41.412c0.332,0,0.601,0.27,0.601,0.602s-0.269,0.601-0.601,0.601 s-0.602-0.269-0.602-0.601S57.193,41.412,57.525,41.412z M52.476,39.336c0.308,0,0.558,0.25,0.558,0.559 c0,0.308-0.25,0.558-0.558,0.558c-0.309,0-0.559-0.25-0.559-0.558C51.918,39.586,52.168,39.336,52.476,39.336z M52.94,44.564 l7.937-0.018l0.029,12.838l-7.936,0.018L52.94,44.564z M48.039,35.562c-5.486-1.654-9.902-6.232-12.686-11.101 c-0.074-0.134-0.159-0.252-0.248-0.363c-0.082-0.291-0.191-0.578-0.325-0.858c-1.177-2.473-2.709-4.795-4.531-6.855 c4.333-0.884,8.58-2.089,12.744-3.688c3.083-1.182,1.747-6.188-1.374-4.99c-5.702,2.19-11.623,3.77-17.684,4.565 c-0.088,0.012-0.164,0.04-0.248,0.058c-0.917,0.095-1.808,0.49-2.557,1.248c-0.283,0.287-0.521,0.623-0.713,0.987 c-3.674,0.54-7.009-0.527-10.16-2.707c-2.752-1.904-5.336,2.583-2.612,4.468c4.053,2.804,8.652,4.021,13.406,3.366 c0.039,0.036,0.072,0.073,0.111,0.106c2.062,1.732,3.682,3.698,4.998,5.956c-6.192,1.682-12.586,4.956-13.597,11.445 c-0.507,3.264,4.479,4.667,4.99,1.378c0.974-6.257,9.54-8.054,14.981-8.904c3.456,4.948,8.346,9.135,14.126,10.879 C49.867,41.517,51.224,36.523,48.039,35.562z M0,56.874h7.934L12.53,44.04H0V56.874z"/> </g> </g>
</svg>